# File created by Blade
# Date/Time:  Tue Sep 30 19:11:52 2014
#---------------------------------------------------------
:version 1.10
:name HOM
:units
  mass 1.0
  length 1.000000
  angle deg
:documentation
     Acclaim Skeleton File
:root
   axis xyz
   order TX TY TZ RX RY RZ
   position 0.000000 0.000000 0.000000
   orientation 0 0 0
:bonedata
   begin
      id 1
      name Spine_dum
      direction 0.000000 1.000000 0.000000
      length 7.508948
      axis 0.0 0.0 0.0 xyz
   end
   begin
      id 2
      name LeftUpLeg_dum
      direction 1.000000 0.000000 0.000000
      length 3.000560
      axis 0.0 0.0 0.0 xyz
   end
   begin
      id 3
      name RightUpLeg_dum
      direction -1.000000 0.000000 0.000000
      length 3.000560
      axis 0.0 0.0 0.0 xyz
   end
   begin
      id 4
      name Spine
      direction 0.000000 1.000000 0.000000
      length 0.000000
      axis 0.0 0.0 0.0 xyz
      dof rx ry rz
   end
   begin
      id 5
      name Spine_dum1
      direction 0.000000 1.000000 0.000000
      length 13.861154
      axis 0.0 0.0 0.0 xyz
   end
   begin
      id 6
      name Spine_dum2
      direction 0.000000 1.000000 0.000000
      length 8.204781
      axis 0.0 0.0 0.0 xyz
   end
   begin
      id 7
      name Spine_dum3
      direction 0.000000 1.000000 0.000000
      length 8.204781
      axis 0.0 0.0 0.0 xyz
   end
   begin
      id 8
      name Head
      direction 0.000000 1.000000 0.000000
      length 4.527550
      axis 0.0 0.0 0.0 xyz
      dof rx ry rz
   end
   begin
      id 9
      name LeftShoulder
      direction 1.000000 0.000000 0.000000
      length 6.635956
      axis 0.0 0.0 -90.0 xyz
      dof rx ry rz
   end
   begin
      id 10
      name LeftArm
      direction 1.000000 0.000000 0.000000
      length 10.274218
      axis 0.0 0.0 -90.0 xyz
      dof rx ry rz
   end
   begin
      id 11
      name LeftForeArm
      direction 1.000000 0.000000 0.000000
      length 8.522147
      axis 0.0 0.0 -90.0 xyz
      dof ry rz rx
   end
   begin
      id 12
      name LeftHand
      direction 0.000000 0.000000 0.000000
      length 0.000000
      axis 0.0 0.0 -90.0 xyz
      dof rx ry rz
   end
   begin
      id 13
      name LeftHand_dum1
      direction 0.000000 0.000000 0.000000
      length 0.000000
      axis 0.0 0.0 -90.0 xyz
   end
   begin
      id 14
      name LeftHand_dum2
      direction 1.000000 0.000000 0.000000
      length 3.937000
      axis 0.0 0.0 -90.0 xyz
   end
   begin
      id 15
      name LeftHandThumb1
      direction 0.000000 0.000000 1.000000
      length 3.937000
      axis 0.0 0.0 -90.0 xyz
      dof rx rz ry
   end
   begin
      id 16
      name RightShoulder
      direction -1.000000 0.000000 0.000000
      length 6.635956
      axis 0.0 0.0 90.0 xyz
      dof rx ry rz
   end
   begin
      id 17
      name RightArm
      direction -1.000000 0.000000 0.000000
      length 10.274218
      axis 0.0 0.0 90.0 xyz
      dof rx ry rz
   end
   begin
      id 18
      name RightForeArm
      direction -1.000000 0.000000 0.000000
      length 8.522147
      axis 0.0 0.0 90.0 xyz
      dof ry rz rx
   end
   begin
      id 19
      name RightHand
      direction 0.000000 0.000000 0.000000
      length 0.000000
      axis 0.0 0.0 90.0 xyz
      dof rx ry rz
   end
   begin
      id 20
      name RightHand_dum1
      direction 0.000000 0.000000 0.000000
      length 0.000000
      axis 0.0 0.0 90.0 xyz
   end
   begin
      id 21
      name RightHand_dum2
      direction -1.000000 0.000000 0.000000
      length 3.937000
      axis 0.0 0.0 90.0 xyz
   end
   begin
      id 22
      name RightHandThumb1
      direction 0.000000 0.000000 1.000000
      length 3.937000
      axis 0.0 0.0 90.0 xyz
      dof rx rz ry
   end
   begin
      id 23
      name LeftUpLeg
      direction 0.000000 -1.000000 0.000000
      length 16.490845
      axis 0.0 0.0 0.0 xyz
      dof rx ry rz
   end
   begin
      id 24
      name LeftLeg
      direction 0.000000 -1.000000 0.000000
      length 14.556576
      axis 0.0 0.0 0.0 xyz
      dof rx ry rz
   end
   begin
      id 25
      name LeftFoot
      direction 0.000000 -0.258819 0.965926
      length 4.831116
      axis 15.0 0.0 0.0 xyz
      dof rx ry rz
   end
   begin
      id 26
      name LeftToeBase
      direction 0.000000 0.000000 1.000000
      length 2.952750
      axis 0.0 0.0 0.0 xyz
      dof rx ry rz
   end
   begin
      id 27
      name RightUpLeg
      direction 0.000000 -1.000000 0.000000
      length 16.490845
      axis 0.0 0.0 0.0 xyz
      dof rx ry rz
   end
   begin
      id 28
      name RightLeg
      direction 0.000000 -1.000000 0.000000
      length 14.556576
      axis 0.0 0.0 0.0 xyz
      dof rx ry rz
   end
   begin
      id 29
      name RightFoot
      direction 0.000000 -0.258819 0.965926
      length 4.831116
      axis 15.0 0.0 0.0 xyz
      dof rx ry rz
   end
   begin
      id 30
      name RightToeBase
      direction 0.000000 0.000000 1.000000
      length 2.952750
      axis 0.0 0.0 0.0 xyz
      dof rx ry rz
   end
:hierarchy
   begin
      root Spine_dum LeftUpLeg_dum RightUpLeg_dum
      Spine_dum Spine
      LeftUpLeg_dum LeftUpLeg
      RightUpLeg_dum RightUpLeg
      Spine Spine_dum1 Spine_dum2 Spine_dum3
      Spine_dum1 Head
      Spine_dum2 LeftShoulder
      Spine_dum3 RightShoulder
      LeftShoulder LeftArm
      LeftArm LeftForeArm
      LeftForeArm LeftHand
      LeftHand LeftHand_dum1 LeftHand_dum2
      LeftHand_dum1 LeftHandThumb1
      RightShoulder RightArm
      RightArm RightForeArm
      RightForeArm RightHand
      RightHand RightHand_dum1 RightHand_dum2
      RightHand_dum1 RightHandThumb1
      LeftUpLeg LeftLeg
      LeftLeg LeftFoot
      LeftFoot LeftToeBase
      RightUpLeg RightLeg
      RightLeg RightFoot
      RightFoot RightToeBase
   end

# File created by Blade
# Date/Time:  Thu Sep 25 15:55:53 2014
# Frame Rate: 120.000 fps
#------------------------------------------------------
:FULLY-SPECIFIED
:DEGREES
1
root -3.072026 32.833908 -2.352042 11.230038 -3.435121 -2.097318
Spine -12.278347 7.553607 1.112084
Head -11.442736 -7.524555 10.491053
LeftShoulder -12.082311 22.905896 27.276188
LeftArm 23.986801 -23.246512 -29.687861
LeftForeArm 7.190324 -0.000000 13.429947
LeftHand -28.275211 -0.000000 -3.081314
LeftHandThumb1 -26.253704 0.000000 33.147579
RightShoulder -16.164382 11.674541 -37.908525
RightArm -7.833555 9.375932 32.467847
RightForeArm -29.091077 -0.000000 17.624077
RightHand -8.741825 -0.000000 6.198746
RightHandThumb1 -24.326973 -0.000000 -32.862282
LeftUpLeg -5.241042 12.792891 2.456243
LeftLeg 0.594795 -0.000000 -0.000000
LeftFoot -12.544050 7.715957 -18.236787
LeftToeBase 5.178657 -0.000000 -0.000000
RightUpLeg -7.497567 -7.310735 1.116546
RightLeg 2.843572 -0.000000 -0.000000
RightFoot -8.831287 -1.852880 -4.480057
RightToeBase -0.791537 -0.000000 0.000000
2
root -3.075393 32.834439 -2.353034 11.234066 -3.445298 -2.100091
Spine -12.293121 7.571139 1.116673
Head -11.420373 -7.533046 10.484159
LeftShoulder -12.076784 22.923987 27.283493
LeftArm 23.993909 -23.310307 -29.715392
LeftForeArm 7.116390 -0.000000 13.465221
LeftHand -28.358102 -0.000000 -3.078340
LeftHandThumb1 -26.253704 0.000000 33.147579
RightShoulder -16.173879 11.664437 -37.926767
RightArm -7.848563 9.389537 32.471692
RightForeArm -29.139098 -0.000000 17.646528
RightHand -8.786918 -0.000000 6.191184
RightHandThumb1 -24.326973 -0.000000 -32.862282
LeftUpLeg -5.232370 12.785356 2.464824
LeftLeg 0.568133 -0.000000 -0.000000
LeftFoot -12.524050 7.736566 -18.272437
LeftToeBase 5.104291 -0.000000 -0.000000
RightUpLeg -7.505791 -7.307031 1.126183
RightLeg 2.847767 -0.000000 -0.000000
RightFoot -8.835136 -1.853462 -4.470432
RightToeBase -0.765030 -0.000000 0.000000
3
root -3.078690 32.834967 -2.353364 11.233859 -3.447709 -2.101245
Spine -12.307830 7.579202 1.124483
Head -11.389438 -7.533168 10.481294
LeftShoulder -12.064496 22.901335 27.285765
LeftArm 23.977083 -23.288622 -29.695997
LeftForeArm 7.127579 -0.000000 13.448702
LeftHand -28.347895 0.000000 -3.045745
LeftHandThumb1 -26.253704 0.000000 33.147579
RightShoulder -16.169919 11.662622 -37.931602
RightArm -7.863429 9.392707 32.445731
RightForeArm -29.165936 -0.000000 17.644429
RightHand -8.745609 0.000000 6.212725
RightHandThumb1 -24.326973 -0.000000 -32.862282
LeftUpLeg -5.219541 12.777206 2.472287
LeftLeg 0.540727 -0.000000 -0.000000
LeftFoot -12.509253 7.756066 -18.270646
LeftToeBase 5.106525 -0.000000 -0.000000
RightUpLeg -7.505647 -7.299217 1.134510
RightLeg 2.846081 -0.000000 -0.000000
RightFoot -8.827625 -1.866470 -4.510821
RightToeBase -0.727565 -0.000000 0.000000
4
root -3.081695 32.835528 -2.354335 11.233776 -3.453992 -2.100426
Spine -12.321419 7.580215 1.126911
Head -11.365904 -7.552455 10.488338
LeftShoulder -12.058771 22.913587 27.296492
LeftArm 23.968540 -23.290264 -29.695058
LeftForeArm 7.102877 0.000000 13.444351
LeftHand -28.350555 0.000000 -3.035462
LeftHandThumb1 -26.253704 0.000000 33.147579
RightShoulder -16.143983 11.635531 -37.907992
RightArm -7.889397 9.466376 32.408838
RightForeArm -29.133046 -0.000000 17.671242
RightHand -8.928109 -0.000000 6.108127
RightHandThumb1 -24.326973 -0.000000 -32.862282
LeftUpLeg -5.206464 12.762896 2.477590
LeftLeg 0.513215 -0.000000 -0.000000
LeftFoot -12.500935 7.785103 -18.287147
LeftToeBase 5.145206 -0.000000 -0.000000
RightUpLeg -7.512439 -7.321401 1.143897
RightLeg 2.855427 -0.000000 -0.000000
RightFoot -8.834287 -1.849757 -4.513406
RightToeBase -0.705286 -0.000000 0.000000
5
root -3.085326 32.836012 -2.355411 11.229431 -3.457019 -2.100665
Spine -12.325625 7.590218 1.129316
Head -11.344250 -7.548821 10.505710
LeftShoulder -12.041870 22.891785 27.310798
LeftArm 23.939531 -23.267368 -29.678097
LeftForeArm 7.116341 0.000000 13.448170
LeftHand -28.327275 -0.000000 -3.049515
LeftHandThumb1 -26.253704 0.000000 33.147579
RightShoulder -16.135409 11.663319 -37.918098
RightArm -7.928150 9.460698 32.381687
RightForeArm -29.161071 -0.000000 17.649874
RightHand -8.856238 -0.000000 6.066163
RightHandThumb1 -24.326973 -0.000000 -32.862282
LeftUpLeg -5.191920 12.746473 2.485468
LeftLeg 0.489206 -0.000000 -0.000000
LeftFoot -12.488069 7.809785 -18.302591
LeftToeBase 5.123227 -0.000000 -0.000000
RightUpLeg -7.512020 -7.330447 1.150857
RightLeg 2.858330 -0.000000 -0.000000
RightFoot -8.819178 -1.837671 -4.516748
RightToeBase -0.771206 -0.000000 0.000000
6
root -3.088318 32.836755 -2.356400 11.226470 -3.456531 -2.098008
Spine -12.330564 7.586595 1.134742
Head -11.325642 -7.555965 10.512267
LeftShoulder -12.038708 22.899307 27.311988
LeftArm 23.945655 -23.232975 -29.664779
LeftForeArm 7.194353 0.000000 13.385021
LeftHand -28.235879 0.000000 -2.979738
LeftHandThumb1 -26.253704 0.000000 33.147579
RightShoulder -16.148103 11.657853 -37.934628
RightArm -7.894912 9.433739 32.384186
RightForeArm -29.163994 -0.000000 17.618967
RightHand -8.859310 0.000000 6.088157
RightHandThumb1 -24.326973 -0.000000 -32.862282
LeftUpLeg -5.188348 12.744734 2.489163
LeftLeg 0.481315 -0.000000 -0.000000
LeftFoot -12.470665 7.815325 -18.310402
LeftToeBase 5.104983 -0.000000 -0.000000
RightUpLeg -7.511898 -7.338203 1.155477
RightLeg 2.861238 -0.000000 -0.000000
RightFoot -8.821345 -1.835005 -4.540335
RightToeBase -0.746920 -0.000000 0.000000
7
root -3.091283 32.836723 -2.358127 11.230511 -3.458408 -2.089388
Spine -12.336033 7.597515 1.141429
Head -11.324624 -7.564276 10.478196
LeftShoulder -11.994926 22.875223 27.302860
LeftArm 23.906840 -23.154119 -29.583928
LeftForeArm 7.104486 -0.000000 13.285974
LeftHand -28.185644 -0.000000 -2.994227
LeftHandThumb1 -26.253704 0.000000 33.147579
RightShoulder -16.166294 11.647666 -37.977740
RightArm -7.893917 9.437264 32.402136
RightForeArm -29.197086 -0.000000 17.620705
RightHand -8.857843 0.000000 6.069557
RightHandThumb1 -24.326973 -0.000000 -32.862282
LeftUpLeg -5.188275 12.723776 2.485089
LeftLeg 0.466522 -0.000000 -0.000000
LeftFoot -12.459211 7.844117 -18.318847
LeftToeBase 5.083497 -0.000000 -0.000000
RightUpLeg -7.518808 -7.335320 1.153567
RightLeg 2.860115 -0.000000 -0.000000
RightFoot -8.828350 -1.839475 -4.539110
RightToeBase -0.754016 -0.000000 0.000000
